<?xml version="1.0" encoding="UTF-8"?>
<svg width="512" height="512" viewBox="0 0 24 24" fill="none" xmlns="http://www.w3.org/2000/svg">
  <path d="M13 9C13 10.1046 12.1046 11 11 11C9.89543 11 9 10.1046 9 9C9 7.89543 9.89543 7 11 7C12.1046 7 13 7.89543 13 9Z" stroke="#4F46E5" stroke-width="2" stroke-linecap="round" stroke-linejoin="round"/>
  <path d="M17.4824 15C15.8671 13.4007 13.5388 12.4892 11 12.4892C8.46116 12.4892 6.13285 13.4007 4.51758 15" stroke="#4F46E5" stroke-width="2" stroke-linecap="round" stroke-linejoin="round"/>
  <path d="M11 22C16.5228 22 21 17.5228 21 12C21 6.47715 16.5228 2 11 2C5.47715 2 1 6.47715 1 12C1 17.5228 5.47715 22 11 22Z" stroke="#4F46E5" stroke-width="2" stroke-linecap="round" stroke-linejoin="round"/>
</svg>